<svg xmlns="http://www.w3.org/2000/svg" viewBox="0 0 216.38 191.26"><defs><style>.cls-1{fill:#ffd34b;}.cls-2{fill:#007f20;}.cls-3{fill:#020202;}</style></defs><g id="Layer_2" data-name="Layer 2"><circle class="cls-1" cx="132.51" cy="52.83" r="52.83"/></g><g id="Layer_6" data-name="Layer 6"><path class="cls-2" d="M15.94,226.06c1-19.3,29.46-54.35,112.76-53.34s103.62,41.15,103.62,53.34Z" transform="translate(-15.94 -34.79)"/></g><g id="Layer_3" data-name="Layer 3"><path d="M145.81,60.38c-1.84.45-3.62,2.67-3.62,2.67a4.26,4.26,0,0,0-.44,1.62c-.1,1.23.73.66,1,1.3a4.26,4.26,0,0,1,.23,2.51c-.45,3.9.88,5.49.88,5.49a15.49,15.49,0,0,0,1.24,2.22c.54.7,1.27.13,2,.48s.89.22.86,1.14a3.92,3.92,0,0,1-1.14,2,18.65,18.65,0,0,1-2.76,2.29c-2.77,1.58-6.16,2.23-6.79,1.72s-.61-.74-.55-1.66,1.27.38,1.43-3.78c-.14-2.51-.45-3.61-1.33-4.86-2.86-4-7.88-2.15-9-.65a7.46,7.46,0,0,0-1.37,5c.09,2,.81,2.36.7,3.9,0,.56-.16.17-1.78,4.52S124.22,104,125.3,106s4.13,2.92,4.13,2.92,4.57,1.22,4.89,2.55-2,4-2,4a18.71,18.71,0,0,0-1.92,3.19c-.29,1.44,2.39,3.7,2.39,3.7L135,124.1l-.23,52.57a4.36,4.36,0,0,1-1.34,3.14,15,15,0,0,1-3.14,3.05c-1.67,1.08-5.45,1.55-5.91,2.24a1.59,1.59,0,0,0,0,1.52s8.88.44,10.36.07,3.44-2.37,4.71-2.75l4.66-.07L143.94,170s1.87-4.15,2.62-6.64c.61-2.07,1.81-19.13,2.2-24.95a.41.41,0,0,1,.8-.11,87.94,87.94,0,0,0,2.82,11c1.37,3.92,3.37,6.51,3.57,8.36.23,2.13.72,15.57.87,16,0,0,.74.65.79,1.14l.55,5.3a4.93,4.93,0,0,0,.9,2.59l2.72,3.86a2.75,2.75,0,0,0,2.25,1.17h3.07a1.14,1.14,0,0,0,1.14-1.14v-1.24a4.45,4.45,0,0,0-.85-2.61l-1.45-2a4.15,4.15,0,0,1-.8-2.3l-.48-5,.28-.27a1.68,1.68,0,0,0,.52-1.35c-.32-4.18-1.79-23.42-1.79-23.67s-2.48-18.48-2.48-18.48H163s0-10.87-.24-13.52-.7-5.3-.79-7c.09-2.38,4.09-8.16,5-11.24l.1-12.5a1.73,1.73,0,0,0-.82-1.48c-2.62-1.58-10.52-6.4-10.89-7a7.67,7.67,0,0,1-.28-4.14c.28-1.21.28-1.21.85-1.72s.17-3.1,0-4.34a10.45,10.45,0,0,0-2.13-4.61,11,11,0,0,0-3.52-1.81A13.86,13.86,0,0,0,145.81,60.38Z" transform="translate(-15.94 -34.79)"/><path d="M223.56,199.36a3.23,3.23,0,0,0,4.15-.55,2.94,2.94,0,0,0,.52-3.24,14.49,14.49,0,0,0-2.8-3.24c-2.15-1.83-6.28-4.65-6.28-4.65a1.24,1.24,0,0,1,.6-1.27,10.83,10.83,0,0,0,2.92-2.25,8,8,0,0,0,1.55-3,4.27,4.27,0,0,0,2.64-2.07c.7-1.2-.1-3.16-1.56-4.94a3.11,3.11,0,0,0-3-.49,7.5,7.5,0,0,0-2.89-2.3,17.45,17.45,0,0,0-3.26-.76,2.29,2.29,0,0,1-1.41-1.39,6.15,6.15,0,0,0-1.53-2.5c-.28-.23.11-1.77-.12-2.72-.3-1.21-.81-1.94-.74-2.73a1.67,1.67,0,0,0,0-.59l-.8-3.2s-1.28-3.19-1.42-3.62-2.86-5.65-3-6c-.23-.89-1-4.13-1-4.13a41,41,0,0,1-.81-5.55,12.53,12.53,0,0,0-1.06-3.45c-.73-1.76-1.71-4.05-1.88-4.49-.6-1.59-2.25-3.78-2.12-5.6s1-1.92,1.11-3.6c-1.05-.35-1.32-2.08-1.69-2.78a31.68,31.68,0,0,1-1.83-5.15c-.31-1.21-2-4.41-3.44-5.47a6,6,0,0,0-6.42,0,7.31,7.31,0,0,0-2.72,3.12c-.19.43-.73,2.82-.82,3.16s-.42,2.62-1.15,3.33a5.24,5.24,0,0,1-1.71,1s-.14.52.71,1.24a4,4,0,0,0,1.53.85l-1.43,2.38c-.08,1.26,1.56,2.11,1.56,2.11a17.77,17.77,0,0,0-2.39,1.26c-.65.5-2.06,3.17-3.76,4.84s-8.59,8.35-10.06,9.62a3.45,3.45,0,0,0-1.16,3,6.52,6.52,0,0,0,.49,2.43,19.84,19.84,0,0,0,3.75,5.9,42.81,42.81,0,0,0,3.9,3.43l5.14,4.19a3.92,3.92,0,0,1,1.15,2.86,46.46,46.46,0,0,0,1.1,6.5c.94,4.68,3.95,14,4.31,15.46.63,5.3,1.92,12.28,1.92,12.61s.1,4.62.1,4.86v4.67s.15.92-1.15,1.81-1.7,1.12-3,2.06c-.73.54-1.24.73-1.21,2.13s1.34,1.55,2.54,1.55,6.88-3.17,7.19-3.17c0,0,3.13.6,4.15,0s4.31-7.81,4.31-7.81l.48-2.19s2.14,0,2.48,0,3.52.38,4,.38a22.23,22.23,0,0,1,3.12.34,9.49,9.49,0,0,1,2.69,2l3.17,3.71a19.31,19.31,0,0,0,4.25,3.53,4.33,4.33,0,0,0,5.5-1.65,4,4,0,0,0-.92-4.5,30.22,30.22,0,0,0-3.72-3.14L218.49,197s-1.28-2.2,0-2.13c.58.15,1.71,1.53,1.71,1.53C219.07,195.44,223,198.93,223.56,199.36Zm-42.12-49.77a31,31,0,0,0,0,3.62,12.21,12.21,0,0,1-2.28,0,24.26,24.26,0,0,1-2.58-2.48c-.47-.48-2-3.1-2.19-3.33s-.79-1.35-1.28-2.21a.84.84,0,0,1,.47-1.21l7.19-5.25a36.82,36.82,0,0,1,.67,5C181.25,144,181.58,149.16,181.44,149.59Zm27.66,17.22c-.14.38-2.76,3.44-2.52,5.32a6.39,6.39,0,0,0,1.07,2.89c-2,2.22-.86,7-.73,7.52a9.18,9.18,0,0,1-2.76,2.26,29.07,29.07,0,0,1-3.11.06,16.47,16.47,0,0,1-.11-2.21,39.29,39.29,0,0,1,.88-5,74.2,74.2,0,0,0,1-10c0-.55-1-6.47-1.4-8.68-.39-2-.87-4.77-1.31-6.48a17.17,17.17,0,0,1-1-6c0-1.37,0-2.58,1-2.54a2.87,2.87,0,0,1,.66,1.33,23.32,23.32,0,0,0,2.89,7.19,66.4,66.4,0,0,1,3.3,7c1.11,1.13,2,1.2,2,2.54S209.25,166.43,209.1,166.81Z" transform="translate(-15.94 -34.79)"/><path class="cls-3" d="M110.16,159.46c4.7-.38,5.26-2.1,5.32-2.4a.22.22,0,0,0,0-.08c-.13-.9-2.31-17-2.75-19.2a.37.37,0,0,1,.12-.33,2,2,0,0,0,.58-1.66,3.68,3.68,0,0,0-1.34-2.62,11.33,11.33,0,0,1-1.69-1.8,2.76,2.76,0,0,1-.12-3.05c1.63-1,1.29-4.08,1-4.7a9.33,9.33,0,0,0-4.8-4.6,13.63,13.63,0,0,0-2.77-.7,4,4,0,0,0-3.34,1.15,12.94,12.94,0,0,1-3.73,3,1.7,1.7,0,0,0-1,1.41c-.09,1.44-1.35,3.33-1.47,4.57a.5.5,0,0,0,.19.41,15.92,15.92,0,0,0,3.39,2.26.42.42,0,0,1,.24.45l-.18,1.48a.45.45,0,0,1-.22.33l-4.2,2.33a.46.46,0,0,0-.23.35l-.89,11.07a.43.43,0,0,1-.5.39,40.14,40.14,0,0,1-4.74-1A1.58,1.58,0,0,1,86,144.69a5.08,5.08,0,0,0-.19-2.45.38.38,0,0,1,.23-.48l.71-.3A.39.39,0,0,0,87,141c-.13-.67-.45-2.37-.92-4.74-.82-4.16-2.17-8.51-2.91-14.3-.42-3.33-1.79-10-2.2-13.79-.52-4.69-.79-8.68-.76-9.21a.32.32,0,0,0,0-.16c-.31-.68-1.91-3.93-4.13-5.23-1.08-.32-.19-11.11-.89-13.34s-4.82-6.73-7.11-6.73c-3.49,0-4.78,0-6.56,1.74a20,20,0,0,0-4.48,8c-.45,2.07-.5,8.46-.51,10a.42.42,0,0,1-.33.4,3.32,3.32,0,0,1-1.66-.08.41.41,0,0,0-.52.2,3.69,3.69,0,0,0,.41,2.33.39.39,0,0,0,.2.2L56,97l-4.09,3.71a.48.48,0,0,0-.13.23c-.41,2-5.23,25.58-8.51,31.58a.46.46,0,0,0-.05.36c.43,2-.46,2.4-.77,4.52a16.5,16.5,0,0,0,.29,3.7s.5,2.62,1.8,3c.57.17,1,.13,1-.43A7,7,0,0,0,45.4,142a6.47,6.47,0,0,1,0-1.89,10.21,10.21,0,0,1,1-3.19l.4.31a1.09,1.09,0,0,0,1.71-.51c.73-2.2,2.07-6.21,2.43-7.34s2.33-7.88,3.37-11.41a.42.42,0,0,1,.83.09c.22,2.92.47,7.79-.2,9.16-1,2-4.34,7.21-5.08,10.66-.66,3.13-4.05,16-4.69,18.43a.43.43,0,0,0,.29.52l6.38,1.91a.45.45,0,0,1,.31.42v17a.31.31,0,0,0,0,.1c.19.77,2.69,10.74,2.69,13.85s.05,8.86.06,9.34v.07l.22,1.14a1.34,1.34,0,0,0,1.64,1,5.85,5.85,0,0,0,1.54-.61l.06,0,1.87-1.84a.43.43,0,0,0,.13-.3c0-1.08,0-6.81-.73-8.24A52.5,52.5,0,0,1,58,179.81c.12-2.21.24-12.73.25-13.43a.2.2,0,0,1,0-.07l1.2-6.46a.42.42,0,0,1,.42-.36h4a3.62,3.62,0,0,1,3.56,1.27c1.25,1.76,6,12.67,6.09,13v0L79,184.58a.49.49,0,0,1,0,.11c.13.62,1.41,6.75,1.07,10.8-.25,2.92.27,4.19.79,5.18a4.2,4.2,0,0,0,1.29,1.47,2.41,2.41,0,0,0,1,.23h.37a1.68,1.68,0,0,0,1.5-.93l.29-.55a.58.58,0,0,0,0-.18l.07-7a11.28,11.28,0,0,0-.61-3.82l-2-5.88,0-.08a129.2,129.2,0,0,0-2.56-13.31,51.22,51.22,0,0,0-3.95-9,.42.42,0,0,1,.37-.63c1.71,0,5.75-.07,5.75-1.09,0-1.31-5.09-16.45-6.74-29.4C74.46,120.48,74.42,117,74.46,116a.42.42,0,0,1,.42-.41l1,0a.43.43,0,0,1,.44.37c.24,1.68,1.23,8.57,1.76,11.57.6,3.43,4.06,13.46,4.07,13.46h0a14.06,14.06,0,0,1,.27,3c0,1.75-.39,3.31,0,4.13S89,151.86,90.89,152a7.57,7.57,0,0,1,3.46,1.34l.08.08a4.1,4.1,0,0,1,.46,3.27c-.44,1.65-2.21,6-2.5,7.28s-1,7.66-1.15,9c-.19,1.61-.74,8-.76,8.28v0l-1.22,7.87a.42.42,0,0,0,.2.45A20.94,20.94,0,0,0,95,190.83a.43.43,0,0,1,.37.44l0,2.13a1.45,1.45,0,0,1-1.52,1.42,5.2,5.2,0,0,0-2.09.23c-1.27.53-.85,1.68-.51,2.28s3.56,1.54,4.69,1.88a2.67,2.67,0,0,0,.75.11h1.74a1.11,1.11,0,0,0,1.1-1.14l-.21-7a.42.42,0,0,1,.42-.44l2.75-.05a.44.44,0,0,1,.44.44v1.48a.7.7,0,0,1-.86.66.89.89,0,0,0-.79.24,3.19,3.19,0,0,0,0,2.19c.36.92,1.38,1.39,2.21,2.41a2.3,2.3,0,0,0,1.78.83h1.35a.67.67,0,0,0,.67-.68l-.11-7.65a.42.42,0,0,1,.33-.42,12,12,0,0,0,4.46-1.9,17.91,17.91,0,0,0,4.09-5.23.37.37,0,0,0,0-.31A114,114,0,0,1,109.72,160,.47.47,0,0,1,110.16,159.46Zm-1.6-26A1.46,1.46,0,0,1,107.1,135h-.64v-.43a2,2,0,0,1,.45-1.26l.29-.35a.4.4,0,0,1,.31-.15h1Z" transform="translate(-15.94 -34.79)"/></g></svg>